<svg id="Layer_1" data-name="Layer 1" xmlns="http://www.w3.org/2000/svg" xmlns:xlink="http://www.w3.org/1999/xlink" viewBox="0 0 253.52 247.73"><defs><style>.cls-1{fill:url(#radial-gradient);}.cls-2{fill:#92b4ec;stroke:#0072bc;stroke-miterlimit:10;}.cls-3{fill:#ffd24c;}.cls-4{fill:#fff;}</style><radialGradient id="radial-gradient" cx="159.93" cy="-303.9" r="268.35" gradientTransform="translate(-143.23 314.89) rotate(32.45)" gradientUnits="userSpaceOnUse"><stop offset="0" stop-color="#92b4ec"/><stop offset="0.13" stop-color="#87afe8"/><stop offset="0.37" stop-color="#69a1de"/><stop offset="0.69" stop-color="#388bce"/><stop offset="1" stop-color="#0072bc"/></radialGradient></defs><path class="cls-1" d="M233.78,73.6C221,54.77,192.1,36.4,169.62,32.78l-57-9.2C90.1,20,63.69,33.8,53.89,54.36L29.34,105.89c-9.8,20.56-11.27,54.82-3.27,76.13l19.86,52.9c8,21.33,33.12,37.38,55.83,35.69l57.57-4.29c22.71-1.69,53-17.53,67.4-35.2l36-44.35c14.37-17.67,15.64-47.53,2.83-66.36Z" transform="translate(-20.91 -23)"/><path class="cls-2" d="M31.88,182.27c-8-21.31-6.53-55.58,3.27-76.13L54.09,66.39c9.8-20.55,26.37-20.83,36.83-.6l23.47,45.38c10.46,20.23,9.08,52.54-3.06,71.8L83.77,226.68c-12.14,19.26-28.62,17.59-36.62-3.74Z" transform="translate(-20.91 -23)"/><path class="cls-2" d="M100.36,60.74c-10.46-20.23-.63-33.81,21.85-30.19l44.28,7.14c22.48,3.63,51.35,22,64.15,40.83l24.54,36.08c12.8,18.83,4.67,33.43-18.08,32.45l-52.84-2.27c-22.75-1-49.92-18.33-60.38-38.56Z" transform="translate(-20.91 -23)"/><path class="cls-2" d="M120.37,188.72c12.14-19.26,40.69-34.22,63.44-33.24l52.84,2.27c22.75,1,29.61,16.24,15.25,33.91L224,226c-14.36,17.67-44.69,33.52-67.4,35.21L112,264.48c-22.7,1.69-31.35-12.68-19.21-31.94Z" transform="translate(-20.91 -23)"/><path class="cls-3" d="M216.47,110.81c-4-5.92-2.26-10.58,3.62-10.64,5.69,0,13.43,4.27,17.62,9.82,4.34,5.76,3.4,10.93-2.43,11.35C229.24,121.77,220.66,117,216.47,110.81Z" transform="translate(-20.91 -23)"/><path class="cls-4" d="M217.45,107.11c-.83-1.19-.48-2.17.75-2.2a5.12,5.12,0,0,1,3.71,2.07c.84,1.19.53,2.19-.7,2.24A5.07,5.07,0,0,1,217.45,107.11Z" transform="translate(-20.91 -23)"/><path class="cls-3" d="M157.2,113.08c-3.3-6.94.72-12.37,8.57-12.45,7.57,0,16.39,4.91,20.09,11.35,3.87,6.73.94,12.85-7,13.43C170.59,126,160.68,120.35,157.2,113.08Z" transform="translate(-20.91 -23)"/><path class="cls-4" d="M159.83,108.73c-.69-1.4.11-2.54,1.78-2.58a5,5,0,0,1,4.25,2.41c.71,1.38-.05,2.56-1.72,2.62A5,5,0,0,1,159.83,108.73Z" transform="translate(-20.91 -23)"/><path class="cls-3" d="M195.18,79.49c-3.23-4.75-1.1-8.15,4.5-7.77,5.43.38,12.39,4.22,15.79,8.73,3.51,4.67,2.05,8.47-3.54,8.34C206.15,88.65,198.53,84.41,195.18,79.49Z" transform="translate(-20.91 -23)"/><path class="cls-4" d="M196.47,76.79c-.67-1-.24-1.68.93-1.61A4.94,4.94,0,0,1,200.72,77c.68,1,.28,1.68-.89,1.63A5,5,0,0,1,196.47,76.79Z" transform="translate(-20.91 -23)"/><path class="cls-3" d="M139.91,76.88c-2.58-5.38,1.48-9.16,8.74-8.67,7,.49,14.82,4.84,17.75,9.92,3,5.29-.18,9.58-7.54,9.42C151.24,87.36,142.59,82.49,139.91,76.88Z" transform="translate(-20.91 -23)"/><path class="cls-4" d="M142.6,73.84c-.53-1.09.28-1.88,1.81-1.79a4.87,4.87,0,0,1,3.75,2.09c.55,1.09-.23,1.91-1.77,1.83A4.82,4.82,0,0,1,142.6,73.84Z" transform="translate(-20.91 -23)"/><path class="cls-3" d="M177.93,54.12c-2.65-3.9-.32-6.41,5-5.74,5.17.65,11.49,4.12,14.31,7.86s1.11,6.69-4.22,6.2C187.53,61.93,180.67,58.15,177.93,54.12Z" transform="translate(-20.91 -23)"/><path class="cls-4" d="M179.4,52.11c-.54-.79-.08-1.32,1-1.19a4.81,4.81,0,0,1,3,1.65c.56.79.12,1.33-1,1.21A4.83,4.83,0,0,1,179.4,52.11Z" transform="translate(-20.91 -23)"/><path class="cls-3" d="M126.32,48.45c-2-4.3,1.93-7,8.66-6.11,6.52.82,13.53,4.7,15.9,8.81s-.88,7.32-7.71,6.7C136.13,57.2,128.45,52.91,126.32,48.45Z" transform="translate(-20.91 -23)"/><path class="cls-4" d="M129,46.29c-.43-.87.37-1.43,1.79-1.26a4.65,4.65,0,0,1,3.34,1.85c.45.87-.33,1.45-1.75,1.29A4.64,4.64,0,0,1,129,46.29Z" transform="translate(-20.91 -23)"/><path class="cls-3" d="M56.77,185.71c3.57-4.51,8.53-3.37,11.08,2.83,2.62,6.38,1.58,15.39-2.29,19.85s-8.68,2.53-11-3.78C52.32,198.46,53.3,190.12,56.77,185.71Z" transform="translate(-20.91 -23)"/><path class="cls-4" d="M60.23,186.34c.75-.93,1.76-.68,2.26.58a4.34,4.34,0,0,1-.46,4c-.76.93-1.76.65-2.25-.61A4.38,4.38,0,0,1,60.23,186.34Z" transform="translate(-20.91 -23)"/><path class="cls-3" d="M36.65,133.78c2.9-4.55,6.84-4.55,8.78.18s1.07,12.66-2,17.22-6.94,3.95-8.73-.91S33.81,138.23,36.65,133.78Z" transform="translate(-20.91 -23)"/><path class="cls-4" d="M39.41,133.62c.6-.93,1.4-.92,1.79,0a4.26,4.26,0,0,1-.41,3.45c-.62.93-1.42.9-1.79-.06A4.22,4.22,0,0,1,39.41,133.62Z" transform="translate(-20.91 -23)"/><path class="cls-3" d="M62.77,134.33c3.62-5.14,8.69-5.15,11.31.23,2.69,5.55,1.67,14.44-2.26,19.59S63,158.52,60.6,153,59.25,139.34,62.77,134.33Z" transform="translate(-20.91 -23)"/><path class="cls-4" d="M66.31,134.16c.75-1.06,1.78-1,2.3.05a4.29,4.29,0,0,1-.46,3.91c-.76,1.06-1.79,1-2.3-.08A4.31,4.31,0,0,1,66.31,134.16Z" transform="translate(-20.91 -23)"/><path class="cls-3" d="M68.7,83.6c3.67-5.74,8.83-6.88,11.52-2.29S82,94.81,78,100.64c-3.89,5.67-9,6.17-11.44,1.37S65.12,89.2,68.7,83.6Z" transform="translate(-20.91 -23)"/><path class="cls-4" d="M72.3,82.65c.76-1.19,1.81-1.4,2.34-.47a4.19,4.19,0,0,1-.45,3.87c-.77,1.18-1.82,1.37-2.33.43A4.2,4.2,0,0,1,72.3,82.65Z" transform="translate(-20.91 -23)"/><path class="cls-3" d="M96.76,135c4.67-5.91,11.42-5.92,15.07.32,3.78,6.46,2.64,16.78-2.51,22.71-5,5.74-11.67,4.89-15-1.57C91.16,150.25,92.23,140.79,96.76,135Z" transform="translate(-20.91 -23)"/><path class="cls-4" d="M101.44,134.86c1-1.22,2.35-1.2,3.06.06a4.34,4.34,0,0,1-.5,4.52c-1,1.22-2.36,1.16-3.06-.11A4.38,4.38,0,0,1,101.44,134.86Z" transform="translate(-20.91 -23)"/><path class="cls-3" d="M122.18,232c3.88-7.14,13.57-12.08,21.42-11,7.66,1.1,10.48,7.55,6.54,14.36s-13,11.42-20.6,10.66C121.77,245.27,118.38,239,122.18,232Z" transform="translate(-20.91 -23)"/><path class="cls-4" d="M129,228.29a4.73,4.73,0,0,1,4.4-2.25,1.89,1.89,0,0,1,1.47,3,4.75,4.75,0,0,1-4.37,2.24A1.89,1.89,0,0,1,129,228.29Z" transform="translate(-20.91 -23)"/><path class="cls-3" d="M210.32,186.86c4.53-7.34,13.73-12,20.34-10.42C237.11,178,238.5,185,234,192s-13.14,11.38-19.59,10.14C207.77,200.88,205.87,194.08,210.32,186.86Z" transform="translate(-20.91 -23)"/><path class="cls-4" d="M216.81,183.3a4.37,4.37,0,0,1,4.18-2.14c1.37.31,1.71,1.78.77,3.26a4.38,4.38,0,0,1-4.14,2.13C216.25,186.24,215.88,184.79,216.81,183.3Z" transform="translate(-20.91 -23)"/></svg>