<svg id="Layer_1" data-name="Layer 1" xmlns="http://www.w3.org/2000/svg" viewBox="0 0 36.07 36.07"><defs><style>.cls-1{fill:#3279be;}.cls-2{fill:#fff;}</style></defs><path class="cls-1" d="M28.9,38H22.79L20,37.11,17.23,38H11.1A9.12,9.12,0,0,1,2,28.9V11.1A9.12,9.12,0,0,1,11.1,2H28.9A9.12,9.12,0,0,1,38,11.1V28.9A9.12,9.12,0,0,1,28.9,38Z" transform="translate(-1.97 -1.97)"/><path class="cls-2" d="M17.22,16.08V20H12.69v5.15h4.53V38h5.56V25.15h4.15L27.72,20H22.78V16.66a2.57,2.57,0,0,1,2.91-2.78h2.24V9.49a28.05,28.05,0,0,0-4-.34C19.88,9.15,17.22,11.61,17.22,16.08Z" transform="translate(-1.97 -1.97)"/></svg>