<svg width="30" height="28" viewBox="0 0 30 28" fill="none" xmlns="http://www.w3.org/2000/svg">
<path d="M15 0C15.4973 0 15.9742 0.1475 16.3259 0.41005C16.6775 0.672601 16.875 1.0287 16.875 1.4V16.2204L21.1744 13.0102C21.528 12.7552 22.0017 12.6141 22.4933 12.6173C22.9849 12.6204 23.4552 12.7677 23.8028 13.0273C24.1505 13.2868 24.3477 13.638 24.3519 14.005C24.3562 14.3721 24.1672 14.7258 23.8257 14.9898L16.3257 20.5898C15.974 20.8523 15.4972 20.9997 15 20.9997C14.5029 20.9997 14.026 20.8523 13.6744 20.5898L6.17441 14.9898C5.99533 14.8607 5.85249 14.7062 5.75422 14.5354C5.65596 14.3646 5.60423 14.1809 5.60207 13.995C5.59991 13.8091 5.64735 13.6247 5.74162 13.4527C5.8359 13.2806 5.97512 13.1243 6.15117 12.9928C6.32722 12.8614 6.53657 12.7574 6.767 12.6871C6.99743 12.6167 7.24433 12.5812 7.49329 12.5828C7.74225 12.5845 7.98829 12.6231 8.21705 12.6965C8.4458 12.7698 8.6527 12.8765 8.82566 13.0102L13.125 16.2204V1.4C13.125 1.0287 13.3226 0.672601 13.6742 0.41005C14.0258 0.1475 14.5028 0 15 0ZM1.87504 21C2.37232 21 2.84923 21.1475 3.20086 21.41C3.55249 21.6726 3.75004 22.0287 3.75004 22.4V25.2H26.25V22.4C26.25 22.0287 26.4476 21.6726 26.7992 21.41C27.1508 21.1475 27.6278 21 28.125 21C28.6223 21 29.0992 21.1475 29.4509 21.41C29.8025 21.6726 30 22.0287 30 22.4V25.2C30 25.9426 29.6049 26.6548 28.9017 27.1799C28.1984 27.705 27.2446 28 26.25 28H3.75004C2.75548 28 1.80165 27.705 1.09839 27.1799C0.395126 26.6548 3.8147e-05 25.9426 3.8147e-05 25.2V22.4C3.8147e-05 22.0287 0.197583 21.6726 0.549213 21.41C0.900844 21.1475 1.37776 21 1.87504 21Z" fill="white"/>
</svg>
