<svg id="Layer_1" data-name="Layer 1" xmlns="http://www.w3.org/2000/svg" xmlns:xlink="http://www.w3.org/1999/xlink" viewBox="0 0 36.07 36.07"><defs><style>.cls-1{fill:url(#linear-gradient);}.cls-2{fill:#fff;}</style><linearGradient id="linear-gradient" x1="-0.39" y1="-0.39" x2="34.99" y2="34.99" gradientUnits="userSpaceOnUse"><stop offset="0" stop-color="#ffe187"/><stop offset="0.21" stop-color="#fdb944"/><stop offset="0.38" stop-color="#f05577"/><stop offset="0.52" stop-color="#ed3995"/><stop offset="0.74" stop-color="#8e509f"/><stop offset="1" stop-color="#5e5da9"/></linearGradient></defs><rect class="cls-1" width="36.07" height="36.07" rx="9.13"/><path class="cls-2" d="M26.12,13.43a1.23,1.23,0,1,0,1.23,1.23A1.22,1.22,0,0,0,26.12,13.43Z" transform="translate(-2.56 -2.08)"/><path class="cls-2" d="M20.68,15a5.15,5.15,0,1,0,5.14,5.15A5.16,5.16,0,0,0,20.68,15Zm0,8.44A3.3,3.3,0,1,1,24,20.15,3.3,3.3,0,0,1,20.68,23.44Z" transform="translate(-2.56 -2.08)"/><path class="cls-2" d="M24.76,30.59H16.42a6.28,6.28,0,0,1-6.27-6.27V16A6.28,6.28,0,0,1,16.42,9.7h8.34A6.28,6.28,0,0,1,31,16v8.34A6.28,6.28,0,0,1,24.76,30.59ZM16.42,11.67A4.32,4.32,0,0,0,12.11,16v8.34a4.31,4.31,0,0,0,4.31,4.3h8.34a4.31,4.31,0,0,0,4.31-4.3V16a4.31,4.31,0,0,0-4.31-4.31Z" transform="translate(-2.56 -2.08)"/></svg>