<svg width="152" height="136" viewBox="0 0 152 136" fill="none" xmlns="http://www.w3.org/2000/svg">
<path d="M75.5068 135.619C41.7577 135.619 5.34729 114.45 5.34729 68C5.34729 21.5495 41.7577 0.380707 75.5068 0.380707C94.2564 0.380707 111.554 6.54991 124.377 17.7996C138.288 30.138 145.666 47.557 145.666 68C145.666 88.443 138.288 105.741 124.377 118.079C111.554 129.329 94.1354 135.619 75.5068 135.619Z" fill="url(#paint0_radial_21_506)"/>
<path d="M133.437 27.8034C139.884 38.2064 143.247 50.5932 143.247 64.371C143.247 84.8141 135.868 102.112 121.957 114.45C109.135 125.7 91.7162 131.99 73.0876 131.99C51.2413 131.99 28.3306 123.099 14.8068 104.241C27.8226 125.603 52.3058 135.619 75.5069 135.619C94.1354 135.619 111.554 129.329 124.377 118.079C138.288 105.741 145.666 88.443 145.666 68C145.666 52.5891 141.469 38.8959 133.437 27.8034Z" fill="#EB8F00"/>
<path d="M46.2818 29.6663C45.7495 28.3841 44.2979 27.7308 42.9915 28.2026C41.0319 28.8437 39.1448 29.6784 37.3425 30.6824C32.5523 33.3194 28.4516 37.0572 25.379 41.5692C24.5323 42.7184 24.75 44.3272 25.875 45.1982C26.4677 45.6941 27.2419 45.936 28.0161 45.8393C28.5967 45.7546 29.129 45.4764 29.5402 45.053C34.1853 40.5047 39.3868 36.5613 45.0116 33.3194L45.1447 33.2468C46.4269 32.5573 46.935 30.9727 46.2818 29.6663Z" fill="#422B0D"/>
<path d="M108.276 28.4566C108.808 27.1744 110.26 26.5212 111.566 26.993C113.514 27.622 115.401 28.4324 117.203 29.4123C121.994 32.0493 126.094 35.775 129.179 40.2991C130.014 41.4482 129.796 43.045 128.683 43.928C128.09 44.424 127.316 44.6538 126.542 44.5691C125.961 44.4845 125.429 44.2062 125.018 43.7829C120.373 39.2346 115.171 35.2911 109.546 32.0493L109.413 31.9767C108.167 31.2872 107.659 29.751 108.276 28.4566Z" fill="#422B0D"/>
<path d="M122.042 78.5481C120.349 75.4877 116.671 74.145 113.405 75.3789C100.994 78.9957 88.1235 80.7981 75.1924 80.7376C62.2612 80.7981 49.3906 78.9957 36.9796 75.3789C33.7257 74.145 30.0483 75.4756 28.3548 78.5239C26.7097 81.5602 27.8952 85.0802 29.2863 88.1165C37.0522 105.172 54.1687 115.382 75.0956 115.442H75.2891C96.216 115.442 113.333 105.172 121.111 88.1165C122.49 85.056 123.687 81.5844 122.042 78.5481Z" fill="#422B0D"/>
<path d="M94.5589 110.628C94.1113 110.217 93.6516 109.842 93.192 109.418C88.2566 105.076 81.8697 102.741 75.2892 102.874C68.5151 102.765 61.9226 105.015 56.6364 109.249C56.1767 109.624 55.6929 109.987 55.2453 110.459C54.7977 110.93 54.5558 111.269 54.2655 111.668C60.9186 114.269 68.0071 115.6 75.1561 115.563H75.3497C82.1963 115.563 88.9824 114.342 95.3935 111.934C95.1516 111.475 94.8734 111.039 94.5589 110.628Z" fill="#ED7770"/>
<path d="M113.405 75.3788C100.994 78.9957 88.1235 80.798 75.1923 80.7376C62.2612 80.798 49.3905 78.9957 36.9796 75.3788C33.7256 74.145 30.0483 75.4756 28.3548 78.5239C28.1128 78.9836 27.9193 79.4674 27.7983 79.9634C28.1975 80.169 28.6572 80.3747 29.2015 80.5924C43.7657 87.8866 59.8661 91.5881 76.1479 91.3946C91.7645 91.576 107.2 88.1769 121.304 81.4754C121.873 81.2335 122.344 81.0037 122.768 80.786C122.671 79.9997 122.417 79.2255 122.042 78.5239C120.348 75.4756 116.671 74.1329 113.405 75.3788Z" fill="white"/>
<path d="M122.09 78.5602C120.373 75.4998 116.683 74.145 113.393 75.3789C100.982 78.9957 88.1114 80.7981 75.1924 80.7376C62.2612 80.7981 49.3906 78.9957 36.9796 75.3789C33.7257 74.145 30.0483 75.4756 28.3548 78.524C26.7097 81.5602 27.8952 85.0802 29.2863 88.1165C29.9032 89.4834 30.5927 90.8261 31.3547 92.1204C31.3547 92.1204 28.8145 82.7093 31.016 79.9755C31.766 78.8143 33.0241 78.0885 34.4031 78.0159C34.9716 78.0159 35.528 78.1127 36.0724 78.282C48.7011 81.9957 61.8016 83.8706 74.9746 83.8464H75.398C88.5711 83.8706 101.672 81.9957 114.3 78.282C114.845 78.1127 115.401 78.0159 115.97 78.0159C117.349 78.0885 118.619 78.8143 119.369 79.9755C121.607 82.7093 119.03 92.1567 119.03 92.1567C119.78 90.8624 120.53 89.5318 121.159 88.1528C122.538 85.1165 123.736 81.6086 122.09 78.5602Z" fill="#EB8F00"/>
<path d="M120.373 60.972C120.373 60.972 140.937 61.5405 149.15 76.6974C152.586 83.0601 152.779 93.6325 145.666 97.4912C137.066 102.221 128.997 95.5074 127.969 88.3463C125.199 68.9194 120.373 60.972 120.373 60.972Z" fill="#29B6F6"/>
<path d="M147.674 90.2212C146.864 91.697 145.086 92.3381 143.525 91.7212C142.134 90.9833 141.759 89.2051 141.542 87.6447L140.876 82.8061C140.598 80.8827 138.638 74.653 140.695 73.6369C142.328 72.8386 145.461 75.0401 146.38 76.3103C148.4 79.1892 149.356 87.3906 147.674 90.2212Z" fill="#81D4FA"/>
<path d="M140.695 73.6974C142.328 72.899 145.461 75.1006 146.38 76.3707C148.4 79.1892 149.356 87.3906 147.674 90.2212C146.864 91.697 145.086 92.3381 143.525 91.7212C142.134 90.9833 141.759 89.2051 141.541 87.6446L140.876 82.806" fill="#81D4FA"/>
<path d="M31.6088 60.972C31.6088 60.972 11.0448 61.5405 2.83125 76.6974C-0.604149 82.9997 -0.73721 93.5236 6.31503 97.4308C14.9156 102.16 22.984 95.4469 24.0122 88.2858C26.7823 68.9194 31.6088 60.972 31.6088 60.972Z" fill="#29B6F6"/>
<path d="M4.30707 90.2212C5.11754 91.697 6.89572 92.3381 8.45616 91.7212C9.84726 90.9833 10.2222 89.2051 10.44 87.6447L11.1053 82.8061C11.3835 80.8827 13.3431 74.653 11.2867 73.6369C9.65371 72.8386 6.52073 75.0401 5.60139 76.3103C3.58128 79.1892 2.62566 87.3906 4.30707 90.2212Z" fill="#81D4FA"/>
<path d="M56.8179 59.4962L56.6364 59.2301L56.3824 58.9035C56.2856 58.7704 56.1889 58.6616 56.0679 58.5527L55.33 57.8027C55.0155 57.4882 54.6647 57.1737 54.2776 56.8471C53.4793 56.1576 52.5841 55.6012 51.6164 55.1657C50.685 54.7544 49.6689 54.5367 48.6528 54.5367H48.8584H48.1689C48.0479 54.5246 47.9391 54.5246 47.8181 54.5367C47.6004 54.5609 47.3826 54.5971 47.1649 54.6455C46.6689 54.7665 46.173 54.9238 45.7012 55.1173C44.7335 55.5407 43.8384 56.1092 43.04 56.7987C42.3868 57.343 41.7699 57.9358 41.2013 58.5769L40.5118 59.3511L40.1489 59.7623C38.6853 61.4317 36.1571 61.601 34.4878 60.1494C33.2419 59.0607 32.7943 57.3068 33.3507 55.7463L33.4838 55.3592C33.5927 55.1052 33.6894 54.7181 33.9193 54.2584C34.4757 52.952 35.2015 51.7061 36.0724 50.5811C38.1893 47.7868 41.1651 45.7546 44.54 44.7869C45.2295 44.6055 45.9311 44.4724 46.6448 44.3756C47.0077 44.3756 47.5399 44.2668 47.6972 44.2668H48.6165C49.9834 44.2909 51.3503 44.4845 52.6809 44.8232C53.951 45.174 55.1607 45.682 56.3098 46.3353C58.1848 47.436 59.8299 48.8876 61.1484 50.6174C62.0436 51.7908 62.8056 53.0609 63.3984 54.4157C63.4951 54.6092 63.5798 54.8028 63.6282 55.0084C63.6887 55.1657 63.725 55.2987 63.7613 55.4076L63.8701 55.7342C64.5596 57.8753 63.3863 60.1736 61.2452 60.8631C59.6364 61.3833 57.8582 60.851 56.8058 59.5325L56.8179 59.4962Z" fill="#422B0D"/>
<path d="M111.651 59.4962L111.433 59.2301L111.179 58.9035C111.083 58.7704 110.986 58.6616 110.865 58.5527L110.115 57.8027C109.788 57.464 109.437 57.1495 109.075 56.8471C108.276 56.1576 107.381 55.6012 106.413 55.1657C105.482 54.7544 104.466 54.5367 103.45 54.5367H103.655H102.954C102.833 54.5246 102.724 54.5246 102.603 54.5367C102.385 54.5609 102.167 54.5971 101.95 54.6455C101.454 54.7665 100.958 54.9237 100.486 55.1173C99.5063 55.5649 98.5869 56.1455 97.7644 56.8471C97.1112 57.4035 96.5063 57.9963 95.9378 58.6253L95.2483 59.3994L94.8854 59.8107C93.4217 61.48 90.8936 61.6494 89.2243 60.1978C87.9783 59.1091 87.5307 57.3551 88.0872 55.7947L88.2202 55.4076C88.3291 55.1536 88.4259 54.7665 88.6436 54.3068C89.2242 52.9762 89.9621 51.7303 90.8573 50.5811C92.9742 47.7868 95.9499 45.7546 99.3248 44.7869C100.014 44.6055 100.716 44.4724 101.43 44.3756C101.792 44.3756 102.325 44.2668 102.482 44.2668H103.401C104.768 44.2909 106.135 44.4845 107.466 44.8232C108.724 45.1861 109.933 45.6941 111.07 46.3473C112.945 47.436 114.591 48.8997 115.909 50.6295C116.417 51.2827 116.865 51.9722 117.276 52.6859C117.603 53.2544 117.893 53.8351 118.159 54.4278C118.256 54.6213 118.328 54.8149 118.389 55.0205C118.389 55.1778 118.486 55.3108 118.522 55.4197L118.631 55.7463C119.32 57.8874 118.147 60.1857 116.006 60.8752C114.397 61.3954 112.619 60.8631 111.566 59.5446L111.651 59.4962Z" fill="#422B0D"/>
<defs>
<radialGradient id="paint0_radial_21_506" cx="0" cy="0" r="1" gradientUnits="userSpaceOnUse" gradientTransform="translate(75.5068 68) scale(68.9012 68.9012)">
<stop offset="0.5" stop-color="#FDE030"/>
<stop offset="0.92" stop-color="#F7C02B"/>
<stop offset="1" stop-color="#F4A223"/>
</radialGradient>
</defs>
</svg>
