<svg width="226" height="22" viewBox="0 0 226 22" fill="none" xmlns="http://www.w3.org/2000/svg">
<path d="M16.7429 0.636363V21H13.4616L3.86648 7.12926H3.69744V21H0.00852269V0.636363H3.30966L12.8949 14.517H13.0739V0.636363H16.7429ZM27.2653 21.2983C25.7738 21.2983 24.4812 20.9702 23.3874 20.3139C22.2937 19.6577 21.4452 18.7396 20.842 17.5597C20.2454 16.3797 19.9471 15.0009 19.9471 13.4233C19.9471 11.8456 20.2454 10.4635 20.842 9.27699C21.4452 8.09043 22.2937 7.16903 23.3874 6.51278C24.4812 5.85653 25.7738 5.52841 27.2653 5.52841C28.7567 5.52841 30.0494 5.85653 31.1431 6.51278C32.2369 7.16903 33.082 8.09043 33.6786 9.27699C34.2818 10.4635 34.5835 11.8456 34.5835 13.4233C34.5835 15.0009 34.2818 16.3797 33.6786 17.5597C33.082 18.7396 32.2369 19.6577 31.1431 20.3139C30.0494 20.9702 28.7567 21.2983 27.2653 21.2983ZM27.2852 18.4148C28.0939 18.4148 28.77 18.1927 29.3136 17.7486C29.8571 17.2978 30.2615 16.6946 30.5266 15.9389C30.7984 15.1832 30.9343 14.3414 30.9343 13.4134C30.9343 12.4787 30.7984 11.6335 30.5266 10.8778C30.2615 10.1155 29.8571 9.509 29.3136 9.05824C28.77 8.60748 28.0939 8.3821 27.2852 8.3821C26.4566 8.3821 25.7672 8.60748 25.217 9.05824C24.6734 9.509 24.2657 10.1155 23.994 10.8778C23.7288 11.6335 23.5962 12.4787 23.5962 13.4134C23.5962 14.3414 23.7288 15.1832 23.994 15.9389C24.2657 16.6946 24.6734 17.2978 25.217 17.7486C25.7672 18.1927 26.4566 18.4148 27.2852 18.4148Z" fill="#92B4EC"/>
<path d="M37.7976 0.636363H42.3118L48.3572 15.392H48.5959L54.6413 0.636363H59.1555V21H55.6158V7.00994H55.4268L49.799 20.9403H47.1541L41.5263 6.98011H41.3374V21H37.7976V0.636363ZM69.6754 21.2983C68.1839 21.2983 66.8913 20.9702 65.7976 20.3139C64.7038 19.6577 63.8554 18.7396 63.2521 17.5597C62.6555 16.3797 62.3572 15.0009 62.3572 13.4233C62.3572 11.8456 62.6555 10.4635 63.2521 9.27699C63.8554 8.09043 64.7038 7.16903 65.7976 6.51278C66.8913 5.85653 68.1839 5.52841 69.6754 5.52841C71.1669 5.52841 72.4595 5.85653 73.5533 6.51278C74.647 7.16903 75.4922 8.09043 76.0888 9.27699C76.692 10.4635 76.9936 11.8456 76.9936 13.4233C76.9936 15.0009 76.692 16.3797 76.0888 17.5597C75.4922 18.7396 74.647 19.6577 73.5533 20.3139C72.4595 20.9702 71.1669 21.2983 69.6754 21.2983ZM69.6953 18.4148C70.504 18.4148 71.1802 18.1927 71.7237 17.7486C72.2673 17.2978 72.6716 16.6946 72.9368 15.9389C73.2086 15.1832 73.3445 14.3414 73.3445 13.4134C73.3445 12.4787 73.2086 11.6335 72.9368 10.8778C72.6716 10.1155 72.2673 9.509 71.7237 9.05824C71.1802 8.60748 70.504 8.3821 69.6953 8.3821C68.8667 8.3821 68.1773 8.60748 67.6271 9.05824C67.0836 9.509 66.6759 10.1155 66.4041 10.8778C66.139 11.6335 66.0064 12.4787 66.0064 13.4134C66.0064 14.3414 66.139 15.1832 66.4041 15.9389C66.6759 16.6946 67.0836 17.2978 67.6271 17.7486C68.1773 18.1927 68.8667 18.4148 69.6953 18.4148ZM80.0487 21V5.72727H83.5387V8.27273H83.6978C83.9762 7.3911 84.4535 6.71165 85.1296 6.23438C85.8124 5.75047 86.5913 5.50852 87.4663 5.50852C87.6651 5.50852 87.8872 5.51847 88.1325 5.53835C88.3844 5.55161 88.5932 5.57481 88.7589 5.60795V8.91903C88.6064 8.866 88.3645 8.8196 88.033 8.77983C87.7082 8.73343 87.3933 8.71023 87.0884 8.71023C86.4322 8.71023 85.8422 8.85275 85.3185 9.13778C84.8015 9.41619 84.3938 9.80398 84.0955 10.3011C83.7972 10.7983 83.6481 11.3717 83.6481 12.0213V21H80.0487ZM97.2827 21.2983C95.7514 21.2983 94.429 20.9801 93.3153 20.3438C92.2083 19.7008 91.3565 18.7926 90.7599 17.6193C90.1634 16.4394 89.8651 15.0507 89.8651 13.4531C89.8651 11.8821 90.1634 10.5033 90.7599 9.31676C91.3632 8.12358 92.205 7.19555 93.2855 6.53267C94.366 5.86316 95.6354 5.52841 97.0938 5.52841C98.035 5.52841 98.9233 5.68087 99.7585 5.98579C100.6 6.28409 101.343 6.74811 101.986 7.37784C102.635 8.00758 103.146 8.80966 103.517 9.78409C103.888 10.7519 104.074 11.9053 104.074 13.2443V14.348H91.5554V11.9219H100.624C100.617 11.2325 100.468 10.6193 100.176 10.0824C99.8845 9.53883 99.4768 9.11127 98.9531 8.79972C98.4361 8.48816 97.8329 8.33239 97.1435 8.33239C96.4077 8.33239 95.7614 8.51136 95.2045 8.86932C94.6477 9.22064 94.2135 9.68466 93.902 10.2614C93.5971 10.8314 93.4413 11.4579 93.4347 12.1406V14.2585C93.4347 15.1468 93.5971 15.9091 93.9219 16.5455C94.2467 17.1752 94.7008 17.6591 95.2841 17.9972C95.8674 18.3286 96.5502 18.4943 97.3324 18.4943C97.8561 18.4943 98.33 18.4214 98.7543 18.2756C99.1785 18.1231 99.5464 17.901 99.858 17.6094C100.17 17.3177 100.405 16.9564 100.564 16.5256L103.925 16.9034C103.713 17.7917 103.308 18.5672 102.712 19.2301C102.122 19.8864 101.366 20.3968 100.445 20.7614C99.5232 21.1193 98.4692 21.2983 97.2827 21.2983Z" fill="#0072BC"/>
<path d="M107.278 21V0.636363H115.074C116.545 0.636363 117.768 0.86837 118.743 1.33239C119.724 1.78977 120.456 2.41619 120.94 3.21165C121.431 4.0071 121.676 4.90862 121.676 5.91619C121.676 6.74479 121.517 7.45407 121.199 8.04403C120.88 8.62737 120.453 9.10133 119.916 9.46591C119.379 9.83049 118.779 10.0923 118.116 10.2514V10.4503C118.839 10.4901 119.531 10.7121 120.194 11.1165C120.864 11.5142 121.411 12.0777 121.835 12.8068C122.259 13.536 122.471 14.4176 122.471 15.4517C122.471 16.5057 122.216 17.4536 121.706 18.2955C121.195 19.1307 120.426 19.7902 119.399 20.2741C118.371 20.758 117.079 21 115.521 21H107.278ZM110.967 17.9176H114.934C116.273 17.9176 117.238 17.6624 117.828 17.152C118.424 16.6349 118.723 15.9721 118.723 15.1634C118.723 14.5601 118.574 14.0166 118.275 13.5327C117.977 13.0421 117.553 12.6577 117.002 12.3793C116.452 12.0942 115.796 11.9517 115.034 11.9517H110.967V17.9176ZM110.967 9.29688H114.616C115.252 9.29688 115.826 9.18087 116.336 8.94886C116.847 8.71023 117.248 8.37547 117.539 7.9446C117.838 7.5071 117.987 6.99006 117.987 6.39347C117.987 5.60464 117.708 4.95502 117.152 4.4446C116.601 3.93418 115.783 3.67898 114.696 3.67898H110.967V9.29688ZM132.183 21.2983C130.692 21.2983 129.399 20.9702 128.305 20.3139C127.212 19.6577 126.363 18.7396 125.76 17.5597C125.163 16.3797 124.865 15.0009 124.865 13.4233C124.865 11.8456 125.163 10.4635 125.76 9.27699C126.363 8.09043 127.212 7.16903 128.305 6.51278C129.399 5.85653 130.692 5.52841 132.183 5.52841C133.675 5.52841 134.967 5.85653 136.061 6.51278C137.155 7.16903 138 8.09043 138.597 9.27699C139.2 10.4635 139.501 11.8456 139.501 13.4233C139.501 15.0009 139.2 16.3797 138.597 17.5597C138 18.7396 137.155 19.6577 136.061 20.3139C134.967 20.9702 133.675 21.2983 132.183 21.2983ZM132.203 18.4148C133.012 18.4148 133.688 18.1927 134.232 17.7486C134.775 17.2978 135.179 16.6946 135.445 15.9389C135.716 15.1832 135.852 14.3414 135.852 13.4134C135.852 12.4787 135.716 11.6335 135.445 10.8778C135.179 10.1155 134.775 9.509 134.232 9.05824C133.688 8.60748 133.012 8.3821 132.203 8.3821C131.375 8.3821 130.685 8.60748 130.135 9.05824C129.591 9.509 129.184 10.1155 128.912 10.8778C128.647 11.6335 128.514 12.4787 128.514 13.4134C128.514 14.3414 128.647 15.1832 128.912 15.9389C129.184 16.6946 129.591 17.2978 130.135 17.7486C130.685 18.1927 131.375 18.4148 132.203 18.4148ZM142.556 21V5.72727H146.047V8.27273H146.206C146.484 7.3911 146.961 6.71165 147.637 6.23438C148.32 5.75047 149.099 5.50852 149.974 5.50852C150.173 5.50852 150.395 5.51847 150.64 5.53835C150.892 5.55161 151.101 5.57481 151.267 5.60795V8.91903C151.114 8.866 150.872 8.8196 150.541 8.77983C150.216 8.73343 149.901 8.71023 149.596 8.71023C148.94 8.71023 148.35 8.85275 147.826 9.13778C147.309 9.41619 146.902 9.80398 146.603 10.3011C146.305 10.7983 146.156 11.3717 146.156 12.0213V21H142.556ZM159.79 21.2983C158.259 21.2983 156.937 20.9801 155.823 20.3438C154.716 19.7008 153.864 18.7926 153.268 17.6193C152.671 16.4394 152.373 15.0507 152.373 13.4531C152.373 11.8821 152.671 10.5033 153.268 9.31676C153.871 8.12358 154.713 7.19555 155.793 6.53267C156.874 5.86316 158.143 5.52841 159.602 5.52841C160.543 5.52841 161.431 5.68087 162.266 5.98579C163.108 6.28409 163.851 6.74811 164.494 7.37784C165.143 8.00758 165.654 8.80966 166.025 9.78409C166.396 10.7519 166.582 11.9053 166.582 13.2443V14.348H154.063V11.9219H163.131C163.125 11.2325 162.976 10.6193 162.684 10.0824C162.392 9.53883 161.985 9.11127 161.461 8.79972C160.944 8.48816 160.341 8.33239 159.651 8.33239C158.915 8.33239 158.269 8.51136 157.712 8.86932C157.156 9.22064 156.721 9.68466 156.41 10.2614C156.105 10.8314 155.949 11.4579 155.942 12.1406V14.2585C155.942 15.1468 156.105 15.9091 156.43 16.5455C156.754 17.1752 157.209 17.6591 157.792 17.9972C158.375 18.3286 159.058 18.4943 159.84 18.4943C160.364 18.4943 160.838 18.4214 161.262 18.2756C161.686 18.1231 162.054 17.901 162.366 17.6094C162.677 17.3177 162.913 16.9564 163.072 16.5256L166.433 16.9034C166.22 17.7917 165.816 18.5672 165.219 19.2301C164.629 19.8864 163.874 20.3968 162.952 20.7614C162.031 21.1193 160.977 21.2983 159.79 21.2983ZM175.294 21.2685C174.095 21.2685 173.021 20.9602 172.073 20.3438C171.125 19.7273 170.376 18.8324 169.826 17.6591C169.275 16.4858 169 15.0606 169 13.3835C169 11.6866 169.279 10.2547 169.836 9.08807C170.399 7.91477 171.158 7.02983 172.113 6.43324C173.067 5.83002 174.131 5.52841 175.304 5.52841C176.199 5.52841 176.935 5.68087 177.512 5.98579C178.088 6.28409 178.546 6.64536 178.884 7.0696C179.222 7.48722 179.484 7.88163 179.669 8.25284H179.819V0.636363H183.428V21H179.888V18.5938H179.669C179.484 18.965 179.215 19.3594 178.864 19.777C178.513 20.188 178.049 20.5393 177.472 20.831C176.895 21.1226 176.169 21.2685 175.294 21.2685ZM176.299 18.3153C177.061 18.3153 177.711 18.1098 178.248 17.6989C178.784 17.2812 179.192 16.7012 179.471 15.9588C179.749 15.2164 179.888 14.3513 179.888 13.3636C179.888 12.3759 179.749 11.5175 179.471 10.7884C179.199 10.0592 178.794 9.49242 178.257 9.08807C177.727 8.68371 177.074 8.48153 176.299 8.48153C175.497 8.48153 174.827 8.69034 174.29 9.10795C173.753 9.52557 173.349 10.1023 173.077 10.8381C172.805 11.5739 172.669 12.4157 172.669 13.3636C172.669 14.3182 172.805 15.17 173.077 15.919C173.355 16.6615 173.763 17.2481 174.3 17.679C174.844 18.1032 175.51 18.3153 176.299 18.3153ZM193.925 21.2983C192.434 21.2983 191.141 20.9702 190.048 20.3139C188.954 19.6577 188.105 18.7396 187.502 17.5597C186.906 16.3797 186.607 15.0009 186.607 13.4233C186.607 11.8456 186.906 10.4635 187.502 9.27699C188.105 8.09043 188.954 7.16903 190.048 6.51278C191.141 5.85653 192.434 5.52841 193.925 5.52841C195.417 5.52841 196.71 5.85653 197.803 6.51278C198.897 7.16903 199.742 8.09043 200.339 9.27699C200.942 10.4635 201.244 11.8456 201.244 13.4233C201.244 15.0009 200.942 16.3797 200.339 17.5597C199.742 18.7396 198.897 19.6577 197.803 20.3139C196.71 20.9702 195.417 21.2983 193.925 21.2983ZM193.945 18.4148C194.754 18.4148 195.43 18.1927 195.974 17.7486C196.517 17.2978 196.922 16.6946 197.187 15.9389C197.459 15.1832 197.594 14.3414 197.594 13.4134C197.594 12.4787 197.459 11.6335 197.187 10.8778C196.922 10.1155 196.517 9.509 195.974 9.05824C195.43 8.60748 194.754 8.3821 193.945 8.3821C193.117 8.3821 192.427 8.60748 191.877 9.05824C191.334 9.509 190.926 10.1155 190.654 10.8778C190.389 11.6335 190.256 12.4787 190.256 13.4134C190.256 14.3414 190.389 15.1832 190.654 15.9389C190.926 16.6946 191.334 17.2978 191.877 17.7486C192.427 18.1927 193.117 18.4148 193.945 18.4148ZM204.299 21V5.72727H207.739V8.32244H207.918C208.236 7.44744 208.763 6.76468 209.499 6.27415C210.235 5.77699 211.113 5.52841 212.134 5.52841C213.168 5.52841 214.04 5.7803 214.749 6.28409C215.465 6.78125 215.969 7.4607 216.26 8.32244H216.419C216.757 7.47396 217.328 6.79782 218.13 6.29403C218.938 5.78362 219.896 5.52841 221.003 5.52841C222.409 5.52841 223.555 5.97254 224.444 6.86079C225.332 7.74905 225.776 9.04498 225.776 10.7486V21H222.167V11.3054C222.167 10.3575 221.915 9.66477 221.411 9.22727C220.907 8.78314 220.291 8.56108 219.561 8.56108C218.693 8.56108 218.014 8.83286 217.523 9.37642C217.039 9.91335 216.797 10.6127 216.797 11.4744V21H213.267V11.1562C213.267 10.3674 213.029 9.73769 212.551 9.26705C212.081 8.7964 211.464 8.56108 210.702 8.56108C210.185 8.56108 209.714 8.69365 209.29 8.95881C208.866 9.21733 208.528 9.58523 208.276 10.0625C208.024 10.5331 207.898 11.0833 207.898 11.7131V21H204.299Z" fill="white"/>
</svg>
