<svg width="230" height="36" viewBox="0 0 230 36" fill="none" xmlns="http://www.w3.org/2000/svg">
<path d="M18.7429 7.63636V28H15.4616L5.86648 14.1293H5.69744V28H2.00852V7.63636H5.30966L14.8949 21.517H15.0739V7.63636H18.7429ZM29.2653 28.2983C27.7738 28.2983 26.4812 27.9702 25.3874 27.3139C24.2937 26.6577 23.4452 25.7396 22.842 24.5597C22.2454 23.3797 21.9471 22.0009 21.9471 20.4233C21.9471 18.8456 22.2454 17.4635 22.842 16.277C23.4452 15.0904 24.2937 14.169 25.3874 13.5128C26.4812 12.8565 27.7738 12.5284 29.2653 12.5284C30.7567 12.5284 32.0494 12.8565 33.1431 13.5128C34.2369 14.169 35.082 15.0904 35.6786 16.277C36.2818 17.4635 36.5835 18.8456 36.5835 20.4233C36.5835 22.0009 36.2818 23.3797 35.6786 24.5597C35.082 25.7396 34.2369 26.6577 33.1431 27.3139C32.0494 27.9702 30.7567 28.2983 29.2653 28.2983ZM29.2852 25.4148C30.0939 25.4148 30.77 25.1927 31.3136 24.7486C31.8571 24.2978 32.2615 23.6946 32.5266 22.9389C32.7984 22.1832 32.9343 21.3414 32.9343 20.4134C32.9343 19.4787 32.7984 18.6335 32.5266 17.8778C32.2615 17.1155 31.8571 16.509 31.3136 16.0582C30.77 15.6075 30.0939 15.3821 29.2852 15.3821C28.4566 15.3821 27.7672 15.6075 27.217 16.0582C26.6734 16.509 26.2657 17.1155 25.994 17.8778C25.7288 18.6335 25.5962 19.4787 25.5962 20.4134C25.5962 21.3414 25.7288 22.1832 25.994 22.9389C26.2657 23.6946 26.6734 24.2978 27.217 24.7486C27.7672 25.1927 28.4566 25.4148 29.2852 25.4148Z" fill="#EB5353"/>
<path d="M39.7976 7.63636H44.3118L50.3572 22.392H50.5959L56.6413 7.63636H61.1555V28H57.6158V14.0099H57.4268L51.799 27.9403H49.1541L43.5263 13.9801H43.3374V28H39.7976V7.63636ZM71.6754 28.2983C70.1839 28.2983 68.8913 27.9702 67.7976 27.3139C66.7038 26.6577 65.8554 25.7396 65.2521 24.5597C64.6555 23.3797 64.3572 22.0009 64.3572 20.4233C64.3572 18.8456 64.6555 17.4635 65.2521 16.277C65.8554 15.0904 66.7038 14.169 67.7976 13.5128C68.8913 12.8565 70.1839 12.5284 71.6754 12.5284C73.1669 12.5284 74.4595 12.8565 75.5533 13.5128C76.647 14.169 77.4922 15.0904 78.0888 16.277C78.692 17.4635 78.9936 18.8456 78.9936 20.4233C78.9936 22.0009 78.692 23.3797 78.0888 24.5597C77.4922 25.7396 76.647 26.6577 75.5533 27.3139C74.4595 27.9702 73.1669 28.2983 71.6754 28.2983ZM71.6953 25.4148C72.504 25.4148 73.1802 25.1927 73.7237 24.7486C74.2673 24.2978 74.6716 23.6946 74.9368 22.9389C75.2086 22.1832 75.3445 21.3414 75.3445 20.4134C75.3445 19.4787 75.2086 18.6335 74.9368 17.8778C74.6716 17.1155 74.2673 16.509 73.7237 16.0582C73.1802 15.6075 72.504 15.3821 71.6953 15.3821C70.8667 15.3821 70.1773 15.6075 69.6271 16.0582C69.0836 16.509 68.6759 17.1155 68.4041 17.8778C68.139 18.6335 68.0064 19.4787 68.0064 20.4134C68.0064 21.3414 68.139 22.1832 68.4041 22.9389C68.6759 23.6946 69.0836 24.2978 69.6271 24.7486C70.1773 25.1927 70.8667 25.4148 71.6953 25.4148ZM82.0487 28V12.7273H85.5387V15.2727H85.6978C85.9762 14.3911 86.4535 13.7116 87.1296 13.2344C87.8124 12.7505 88.5913 12.5085 89.4663 12.5085C89.6651 12.5085 89.8872 12.5185 90.1325 12.5384C90.3844 12.5516 90.5932 12.5748 90.7589 12.608V15.919C90.6064 15.866 90.3645 15.8196 90.033 15.7798C89.7082 15.7334 89.3933 15.7102 89.0884 15.7102C88.4322 15.7102 87.8422 15.8527 87.3185 16.1378C86.8015 16.4162 86.3938 16.804 86.0955 17.3011C85.7972 17.7983 85.6481 18.3717 85.6481 19.0213V28H82.0487ZM99.2827 28.2983C97.7514 28.2983 96.429 27.9801 95.3153 27.3438C94.2083 26.7008 93.3565 25.7926 92.7599 24.6193C92.1634 23.4394 91.8651 22.0507 91.8651 20.4531C91.8651 18.8821 92.1634 17.5033 92.7599 16.3168C93.3632 15.1236 94.205 14.1955 95.2855 13.5327C96.366 12.8632 97.6354 12.5284 99.0938 12.5284C100.035 12.5284 100.923 12.6809 101.759 12.9858C102.6 13.2841 103.343 13.7481 103.986 14.3778C104.635 15.0076 105.146 15.8097 105.517 16.7841C105.888 17.7519 106.074 18.9053 106.074 20.2443V21.348H93.5554V18.9219H102.624C102.617 18.2325 102.468 17.6193 102.176 17.0824C101.884 16.5388 101.477 16.1113 100.953 15.7997C100.436 15.4882 99.8329 15.3324 99.1435 15.3324C98.4077 15.3324 97.7614 15.5114 97.2045 15.8693C96.6477 16.2206 96.2135 16.6847 95.902 17.2614C95.5971 17.8314 95.4413 18.4579 95.4347 19.1406V21.2585C95.4347 22.1468 95.5971 22.9091 95.9219 23.5455C96.2467 24.1752 96.7008 24.6591 97.2841 24.9972C97.8674 25.3286 98.5502 25.4943 99.3324 25.4943C99.8561 25.4943 100.33 25.4214 100.754 25.2756C101.179 25.1231 101.546 24.901 101.858 24.6094C102.17 24.3177 102.405 23.9564 102.564 23.5256L105.925 23.9034C105.713 24.7917 105.308 25.5672 104.712 26.2301C104.122 26.8864 103.366 27.3968 102.445 27.7614C101.523 28.1193 100.469 28.2983 99.2827 28.2983Z" fill="#FFD24C"/>
<path d="M109.278 28V7.63636H117.074C118.545 7.63636 119.768 7.86837 120.743 8.33239C121.724 8.78977 122.456 9.41619 122.94 10.2116C123.431 11.0071 123.676 11.9086 123.676 12.9162C123.676 13.7448 123.517 14.4541 123.199 15.044C122.88 15.6274 122.453 16.1013 121.916 16.4659C121.379 16.8305 120.779 17.0923 120.116 17.2514V17.4503C120.839 17.4901 121.531 17.7121 122.194 18.1165C122.864 18.5142 123.411 19.0777 123.835 19.8068C124.259 20.536 124.471 21.4176 124.471 22.4517C124.471 23.5057 124.216 24.4536 123.706 25.2955C123.195 26.1307 122.426 26.7902 121.399 27.2741C120.371 27.758 119.079 28 117.521 28H109.278ZM112.967 24.9176H116.934C118.273 24.9176 119.238 24.6624 119.828 24.152C120.424 23.6349 120.723 22.9721 120.723 22.1634C120.723 21.5601 120.574 21.0166 120.275 20.5327C119.977 20.0421 119.553 19.6577 119.002 19.3793C118.452 19.0942 117.796 18.9517 117.034 18.9517H112.967V24.9176ZM112.967 16.2969H116.616C117.252 16.2969 117.826 16.1809 118.336 15.9489C118.847 15.7102 119.248 15.3755 119.539 14.9446C119.838 14.5071 119.987 13.9901 119.987 13.3935C119.987 12.6046 119.708 11.955 119.152 11.4446C118.601 10.9342 117.783 10.679 116.696 10.679H112.967V16.2969ZM134.183 28.2983C132.692 28.2983 131.399 27.9702 130.305 27.3139C129.212 26.6577 128.363 25.7396 127.76 24.5597C127.163 23.3797 126.865 22.0009 126.865 20.4233C126.865 18.8456 127.163 17.4635 127.76 16.277C128.363 15.0904 129.212 14.169 130.305 13.5128C131.399 12.8565 132.692 12.5284 134.183 12.5284C135.675 12.5284 136.967 12.8565 138.061 13.5128C139.155 14.169 140 15.0904 140.597 16.277C141.2 17.4635 141.501 18.8456 141.501 20.4233C141.501 22.0009 141.2 23.3797 140.597 24.5597C140 25.7396 139.155 26.6577 138.061 27.3139C136.967 27.9702 135.675 28.2983 134.183 28.2983ZM134.203 25.4148C135.012 25.4148 135.688 25.1927 136.232 24.7486C136.775 24.2978 137.179 23.6946 137.445 22.9389C137.716 22.1832 137.852 21.3414 137.852 20.4134C137.852 19.4787 137.716 18.6335 137.445 17.8778C137.179 17.1155 136.775 16.509 136.232 16.0582C135.688 15.6075 135.012 15.3821 134.203 15.3821C133.375 15.3821 132.685 15.6075 132.135 16.0582C131.591 16.509 131.184 17.1155 130.912 17.8778C130.647 18.6335 130.514 19.4787 130.514 20.4134C130.514 21.3414 130.647 22.1832 130.912 22.9389C131.184 23.6946 131.591 24.2978 132.135 24.7486C132.685 25.1927 133.375 25.4148 134.203 25.4148ZM144.556 28V12.7273H148.047V15.2727H148.206C148.484 14.3911 148.961 13.7116 149.637 13.2344C150.32 12.7505 151.099 12.5085 151.974 12.5085C152.173 12.5085 152.395 12.5185 152.64 12.5384C152.892 12.5516 153.101 12.5748 153.267 12.608V15.919C153.114 15.866 152.872 15.8196 152.541 15.7798C152.216 15.7334 151.901 15.7102 151.596 15.7102C150.94 15.7102 150.35 15.8527 149.826 16.1378C149.309 16.4162 148.902 16.804 148.603 17.3011C148.305 17.7983 148.156 18.3717 148.156 19.0213V28H144.556ZM161.79 28.2983C160.259 28.2983 158.937 27.9801 157.823 27.3438C156.716 26.7008 155.864 25.7926 155.268 24.6193C154.671 23.4394 154.373 22.0507 154.373 20.4531C154.373 18.8821 154.671 17.5033 155.268 16.3168C155.871 15.1236 156.713 14.1955 157.793 13.5327C158.874 12.8632 160.143 12.5284 161.602 12.5284C162.543 12.5284 163.431 12.6809 164.266 12.9858C165.108 13.2841 165.851 13.7481 166.494 14.3778C167.143 15.0076 167.654 15.8097 168.025 16.7841C168.396 17.7519 168.582 18.9053 168.582 20.2443V21.348H156.063V18.9219H165.131C165.125 18.2325 164.976 17.6193 164.684 17.0824C164.392 16.5388 163.985 16.1113 163.461 15.7997C162.944 15.4882 162.341 15.3324 161.651 15.3324C160.915 15.3324 160.269 15.5114 159.712 15.8693C159.156 16.2206 158.721 16.6847 158.41 17.2614C158.105 17.8314 157.949 18.4579 157.942 19.1406V21.2585C157.942 22.1468 158.105 22.9091 158.43 23.5455C158.754 24.1752 159.209 24.6591 159.792 24.9972C160.375 25.3286 161.058 25.4943 161.84 25.4943C162.364 25.4943 162.838 25.4214 163.262 25.2756C163.686 25.1231 164.054 24.901 164.366 24.6094C164.677 24.3177 164.913 23.9564 165.072 23.5256L168.433 23.9034C168.22 24.7917 167.816 25.5672 167.219 26.2301C166.629 26.8864 165.874 27.3968 164.952 27.7614C164.031 28.1193 162.977 28.2983 161.79 28.2983ZM177.294 28.2685C176.095 28.2685 175.021 27.9602 174.073 27.3438C173.125 26.7273 172.376 25.8324 171.826 24.6591C171.275 23.4858 171 22.0606 171 20.3835C171 18.6866 171.279 17.2547 171.836 16.0881C172.399 14.9148 173.158 14.0298 174.113 13.4332C175.067 12.83 176.131 12.5284 177.304 12.5284C178.199 12.5284 178.935 12.6809 179.512 12.9858C180.088 13.2841 180.546 13.6454 180.884 14.0696C181.222 14.4872 181.484 14.8816 181.669 15.2528H181.819V7.63636H185.428V28H181.888V25.5938H181.669C181.484 25.965 181.215 26.3594 180.864 26.777C180.513 27.188 180.049 27.5393 179.472 27.831C178.895 28.1226 178.169 28.2685 177.294 28.2685ZM178.299 25.3153C179.061 25.3153 179.711 25.1098 180.248 24.6989C180.784 24.2812 181.192 23.7012 181.471 22.9588C181.749 22.2164 181.888 21.3513 181.888 20.3636C181.888 19.3759 181.749 18.5175 181.471 17.7884C181.199 17.0592 180.794 16.4924 180.257 16.0881C179.727 15.6837 179.074 15.4815 178.299 15.4815C177.497 15.4815 176.827 15.6903 176.29 16.108C175.753 16.5256 175.349 17.1023 175.077 17.8381C174.805 18.5739 174.669 19.4157 174.669 20.3636C174.669 21.3182 174.805 22.17 175.077 22.919C175.355 23.6615 175.763 24.2481 176.3 24.679C176.844 25.1032 177.51 25.3153 178.299 25.3153ZM195.925 28.2983C194.434 28.2983 193.141 27.9702 192.048 27.3139C190.954 26.6577 190.105 25.7396 189.502 24.5597C188.906 23.3797 188.607 22.0009 188.607 20.4233C188.607 18.8456 188.906 17.4635 189.502 16.277C190.105 15.0904 190.954 14.169 192.048 13.5128C193.141 12.8565 194.434 12.5284 195.925 12.5284C197.417 12.5284 198.71 12.8565 199.803 13.5128C200.897 14.169 201.742 15.0904 202.339 16.277C202.942 17.4635 203.244 18.8456 203.244 20.4233C203.244 22.0009 202.942 23.3797 202.339 24.5597C201.742 25.7396 200.897 26.6577 199.803 27.3139C198.71 27.9702 197.417 28.2983 195.925 28.2983ZM195.945 25.4148C196.754 25.4148 197.43 25.1927 197.974 24.7486C198.517 24.2978 198.922 23.6946 199.187 22.9389C199.459 22.1832 199.594 21.3414 199.594 20.4134C199.594 19.4787 199.459 18.6335 199.187 17.8778C198.922 17.1155 198.517 16.509 197.974 16.0582C197.43 15.6075 196.754 15.3821 195.945 15.3821C195.117 15.3821 194.427 15.6075 193.877 16.0582C193.334 16.509 192.926 17.1155 192.654 17.8778C192.389 18.6335 192.256 19.4787 192.256 20.4134C192.256 21.3414 192.389 22.1832 192.654 22.9389C192.926 23.6946 193.334 24.2978 193.877 24.7486C194.427 25.1927 195.117 25.4148 195.945 25.4148ZM206.299 28V12.7273H209.739V15.3224H209.918C210.236 14.4474 210.763 13.7647 211.499 13.2741C212.235 12.777 213.113 12.5284 214.134 12.5284C215.168 12.5284 216.04 12.7803 216.749 13.2841C217.465 13.7812 217.969 14.4607 218.26 15.3224H218.419C218.757 14.474 219.328 13.7978 220.13 13.294C220.938 12.7836 221.896 12.5284 223.003 12.5284C224.409 12.5284 225.555 12.9725 226.444 13.8608C227.332 14.7491 227.776 16.045 227.776 17.7486V28H224.167V18.3054C224.167 17.3575 223.915 16.6648 223.411 16.2273C222.907 15.7831 222.291 15.5611 221.561 15.5611C220.693 15.5611 220.014 15.8329 219.523 16.3764C219.039 16.9134 218.797 17.6127 218.797 18.4744V28H215.267V18.1562C215.267 17.3674 215.029 16.7377 214.551 16.267C214.081 15.7964 213.464 15.5611 212.702 15.5611C212.185 15.5611 211.714 15.6937 211.29 15.9588C210.866 16.2173 210.528 16.5852 210.276 17.0625C210.024 17.5331 209.898 18.0833 209.898 18.7131V28H206.299Z" fill="white"/>
</svg>
