<svg width="148" height="114" viewBox="0 0 148 114" fill="none" xmlns="http://www.w3.org/2000/svg">
<path d="M70.9446 90.9417C70.9446 90.9417 73.2343 100.688 85.9194 107.937C93.9149 112.504 110.726 117.243 119.31 110.9C129.081 103.676 131.187 96.5251 131.652 93.8926C132.117 91.2601 130.721 83.9992 130.721 83.9992L114.645 78.2811C114.645 78.2811 88.0621 84.7706 87.5969 84.7706C87.1438 84.7828 70.9446 90.9417 70.9446 90.9417Z" fill="#E06767"/>
<path d="M130.77 97.0272C131.126 96.1088 131.346 95.3252 131.505 94.6762C128.664 93.9171 125.371 92.6927 122.383 91.4193C122.628 91.3091 122.873 91.1989 123.105 91.0764C124.575 90.3295 126.02 89.4602 127.06 88.1868C128.187 86.8154 128.701 85.04 128.64 83.2645L114.645 78.2811C114.645 78.2811 88.0622 84.7706 87.5969 84.7706C87.1317 84.7706 70.9447 90.9295 70.9324 90.9417C70.7243 91.0152 72.4385 94.615 72.5487 94.7987C74.1037 97.7006 77.679 101.741 80.1279 103.933C80.1279 103.933 79.0014 101.337 81.1319 100.37C82.0748 99.9413 83.2135 100.149 84.1808 100.529C86.6052 101.496 89.6418 105.219 97.2332 109.21C102.388 111.929 107.69 114.01 109.404 113.937C111.694 113.839 115.845 112.724 115.845 112.724C115.845 112.724 110.555 112.222 102.058 108.267C99.4862 107.067 89.9724 102.39 89.0663 99.7821C88.8091 99.0475 87.8908 97.7496 89.556 97.0149C92.1029 95.8762 99.0454 101.864 105.008 104.606C112.11 107.863 119.849 110.471 119.849 110.471C120.681 109.835 121.465 109.198 122.199 108.561C118.244 107.545 114.375 106.149 110.641 104.521C106.918 102.904 103.27 100.811 99.9025 98.5087C97.7597 97.0394 96.2782 94.566 98.5801 94.2477C102.351 93.7212 107.225 97.3088 112.11 99.8434C116.518 102.133 121.808 103.186 126.767 103.811C127.403 103.015 128.444 101.496 128.444 101.496C128.444 101.496 126.571 101.178 121.036 99.9535C118.612 99.4148 116.261 98.7169 114.106 97.5047C113.543 97.1863 111.571 95.166 114.265 94.2354C116.959 93.3049 119.518 95.1538 123.583 96.0966C127.66 97.0639 130.734 97.1129 130.77 97.0272Z" fill="#B05353"/>
<path d="M140.088 46.3724C140.088 46.3724 139.782 36.4545 134.456 27.6753C129.864 20.1083 123.314 19.3369 123.314 19.3369C123.314 19.3369 122.016 14.5739 117.461 10.9251C112.906 7.27627 103.539 4.22743 103.539 4.22743C84.7807 -4.22116 73.0874 2.69689 73.0874 2.69689C73.0874 2.69689 45.2683 -3.91505 22.9959 14.9779C22.9959 14.9779 11.7556 20.2675 7.16396 30.2589C4.62939 35.7933 5.71913 44.8174 5.71913 44.8174C-2.0805 53.8782 0.0622557 68.2285 8.81695 75.4159C12.9923 78.8321 18.1471 81.0973 23.5224 81.6728C25.6284 81.8932 26.6937 81.3912 27.5753 83.5339C28.8731 86.693 29.8894 89.9377 32.4975 92.2029C35.1545 94.5048 38.2523 96.2925 41.546 97.5169C47.9376 99.8801 55.1617 100.137 61.6145 97.8231C63.7572 97.0517 70.6263 96.9782 70.6263 96.9782C70.6263 96.9782 74.2629 99.9781 87.1684 99.5005C100.074 99.023 105.523 93.4518 108.473 92.4111C110.739 91.6152 113.518 89.8642 115.992 90.3173C117.4 90.5744 118.661 91.2968 119.946 91.909C123.546 93.6355 127.587 94.5783 131.554 94.211C146.553 92.8274 148.133 75.5506 146.651 63.6736C145.157 51.6864 140.088 46.3724 140.088 46.3724Z" fill="#FFB3B3"/>
<path d="M29.3017 69.8203C28.9956 70.5182 25.9345 77.2036 23.3632 78.2811C18.9185 80.1545 12.0372 75.6975 9.40464 74.4731C8.89038 74.2282 8.54754 74.8404 8.54754 74.8404C8.11899 75.3914 9.23322 76.5302 9.79646 76.9342C11.9759 78.5015 17.2043 82.0523 21.0857 83.0196C26.0937 84.2686 29.8527 83.0196 29.8527 83.0196C29.8527 83.0196 31.224 72.9915 31.3342 72.5385C31.4444 72.0855 31.3342 68.0938 31.3342 68.0938L29.3017 69.8203Z" fill="#EA6363"/>
<path d="M73.0507 98.1169C73.0507 98.1169 70.5283 97.7251 66.6591 97.7863C62.7899 97.8475 57.3412 98.9617 57.3412 98.9617C57.3412 98.9617 61.1859 97.2108 62.9001 95.6803C64.6143 94.1375 64.9572 90.3907 64.6755 88.1622C64.3817 85.8848 63.6103 84.7338 57.782 83.5216L75.2424 82.5543C69.3896 86.448 68.3243 94.4681 73.0507 98.1169Z" fill="#F07371"/>
<path d="M125.909 61.2737C122.873 61.6778 119.922 61.1023 117.302 59.5473C116.163 58.8616 116.041 57.2454 117.045 56.376C117.718 55.8005 118.685 55.7638 119.432 56.2536C123.669 59.033 127.979 57.2086 130.281 55.776C136.158 52.115 139.072 45.6255 138.68 38.8177C139.856 40.8992 140.713 43.2011 140.921 45.5765C141.447 51.3436 137.297 55.8373 132.656 58.7392C130.44 60.135 128.15 60.9799 125.909 61.2737Z" fill="#F07371"/>
<path d="M139.035 67.0163C137.713 67.0163 136.28 66.7347 134.921 65.9021C133.525 65.045 132.742 63.894 132.044 62.4736C131.468 61.3104 130.66 60.588 129.179 60.6982C128.138 60.7839 127.134 61.3717 126.093 61.2247C127.477 58.7759 129.693 56.8168 132.301 55.7515C133.501 55.2617 134.848 54.9556 136.072 55.3352C136.207 56.1923 135.631 56.9882 135.301 57.7963C134.725 59.2289 134.958 60.9431 135.889 62.1675C136.525 63.0001 137.737 63.894 138.852 63.8205C139.586 63.7715 140.101 63.1471 140.823 63.0859C143.064 62.9267 143.627 66.2082 141.423 66.7224C140.713 66.8938 139.905 67.0163 139.035 67.0163Z" fill="#F07371"/>
<path d="M117.485 21.6144C116.591 21.7246 115.685 21.6266 115.22 20.843C114.62 19.8267 115.122 18.5533 116.236 18.1615C119.31 17.084 122.763 17.2799 125.762 18.4798C128.383 19.5328 129.962 21.3205 131.003 22.5327C132.044 23.7449 132.754 26.1448 132.754 26.1448C130.146 23.8796 128.664 20.3165 117.485 21.6144Z" fill="#F07371"/>
<path d="M105.755 19.2512C103.11 19.141 105.682 19.2512 105.657 19.2512C101.47 19.2512 96.4618 17.8064 95.7883 13.0311C94.5761 4.33763 107.408 7.71706 112.11 8.36601C112.11 8.36601 108.4 4.55803 103.539 4.22743C101.274 4.0805 98.9351 4.14172 96.7311 4.72945C94.3068 5.3784 93.0823 7.2028 90.8784 8.10888C89.2131 8.78232 87.3153 8.52519 85.6011 8.01093C84.0215 7.5334 78.8912 4.77843 78.7442 8.20684C78.7075 9.14965 79.3809 9.95778 80.2993 10.0925C84.0215 10.619 89.1642 12.2842 91.0743 15.8351C91.9559 17.4635 92.164 19.4349 91.6497 21.2103C91.4049 22.0797 91.0498 23.1939 91.7722 23.7449C92.3232 24.1734 93.168 23.8918 93.6701 23.402C94.1721 22.9123 94.4904 22.2511 94.9924 21.7613C96.5597 20.2185 97.9801 21.3205 99.6453 21.9082C101.568 22.5939 103.6 22.9245 105.645 22.9245C105.694 22.9245 102.057 22.5694 105.78 22.9245C109.49 23.2674 108.388 19.3614 105.755 19.2512Z" fill="#F07371"/>
<path d="M46.8969 15.2595C44.8643 13.4229 43.897 6.27221 49.7375 2.58667C49.7375 2.58667 46.554 2.69687 43.897 4.7784C41.6318 6.55383 41.1788 9.62716 41.7175 12.8719C41.8522 13.7045 41.2033 14.4637 40.3584 14.4147C37.3218 14.2555 34.2975 14.8065 31.6894 16.0064C30.6976 16.4717 30.3548 17.7207 30.9425 18.6512C31.4445 19.4349 32.4363 19.7042 33.2812 19.3124C36.2076 17.9655 40.4686 17.2431 43.8848 18.1002C47.3499 18.9696 49.7865 19.9736 52.5048 24.6877C52.9701 25.4836 53.9741 25.7652 54.7332 25.2509C55.321 24.8468 55.5658 24.0877 55.321 23.4265C52.9945 17.0105 49.6396 17.7329 46.8969 15.2595Z" fill="#F07371"/>
<path d="M54.476 37.3116C54.1821 36.3075 53.1536 35.7565 52.1863 36.0504C49.2477 36.932 44.9989 36.6748 43.101 34.7647C40.5664 28.8997 38.6441 27.8589 35.5707 26.8182C34.3463 26.4019 33.1219 27.4549 33.2443 28.7283C33.3178 29.4507 33.7953 30.0629 34.4932 30.2711C36.6727 30.92 38.8645 33.8464 39.9909 36.834C41.0195 39.54 41.1419 43.1031 38.8155 45.6499C38.2155 46.3111 38.0931 47.2662 38.6196 47.9886L38.6441 48.0253C39.3175 48.9559 40.6644 49.0294 41.448 48.1845C42.2806 47.2784 43.15 46.103 43.5173 44.9153C43.8969 43.6541 43.7867 42.5276 44.8764 41.5236C46.0886 40.3971 47.2396 40.6298 48.6967 40.6298C50.1905 40.6298 51.7945 40.091 53.2026 39.589C54.1576 39.2829 54.7698 38.2666 54.476 37.3116Z" fill="#F07371"/>
<path d="M16.9349 53.9149C16.5186 53.9149 16.1146 53.9026 15.686 53.8659C10.0169 53.3761 7.04153 49.2987 5.69465 44.8296C4.34778 40.3604 5.4865 35.4994 5.4865 35.4994C7.20071 48.7233 14.0943 50.0334 16.0044 50.2048C19.6165 50.5232 23.0694 48.9559 24.0122 46.5683C25.506 42.797 20.9266 39.0992 18.6859 36.8095C17.2043 35.2912 16.6533 32.7077 17.0451 30.6629C17.2411 29.6099 17.7063 28.5813 18.5757 27.9079C19.4328 27.2467 21.5878 26.6467 21.2939 28.5324C21.2082 29.1201 20.8286 29.6099 20.596 30.1486C18.9185 33.9688 24.8815 37.5075 26.51 40.3359C27.8446 42.6256 28.4324 45.3928 27.4283 47.9151C26.008 51.515 21.7102 53.9149 16.9349 53.9149Z" fill="#F07371"/>
<path d="M15.6248 52.9354C16.6165 53.0578 17.6328 52.8864 18.5267 52.4456C19.3838 52.0293 20.1552 51.3681 21.098 51.2946C21.551 51.2701 22.1142 51.5395 22.0408 51.9803C22.0163 52.1395 23.0571 52.4333 22.9224 52.519C20.4857 54.0373 14.3146 55.5434 18.5756 66.4776C18.9185 67.3469 18.6491 68.3265 17.8532 68.804C16.9227 69.3672 15.686 68.9999 15.2452 68.0081C14.082 65.4491 13.5187 62.6206 13.5555 59.8044C13.5922 57.0617 13.8738 54.6618 12.0372 52.3721C11.8413 52.1395 11.6331 51.8089 11.7923 51.5517C11.8902 51.3926 12.0861 51.3313 12.2698 51.2824C13.029 51.0865 13.8371 50.8783 14.6085 51.0375C14.9513 51.1109 18.7838 53.2292 18.8205 53.1557" fill="#F07371"/>
<path d="M124.856 70.6161C122.322 70.31 119.714 70.4937 117.314 71.3998C115.281 72.1712 113.763 73.7262 111.424 73.2119C110.029 72.9058 108.792 72.012 107.923 70.8733C106.086 68.4856 106.331 65.9755 107.016 63.2573C107.702 60.5635 107.629 57.4412 106.416 54.9067C106.098 54.2332 105.559 53.6333 104.861 53.3884C104.151 53.1435 103.282 53.3516 102.866 53.9761C102.449 54.6128 102.609 55.4577 102.755 56.2046C103.233 58.4943 103.845 60.9676 103.159 63.2083C102.511 65.3388 101.617 67.249 100.086 68.8897C97.1843 72.012 92.9722 73.4446 89.3357 72.5263C86.6541 71.8528 84.4869 69.9794 83.0298 67.1143C82.5156 64.8736 81.9768 61.9594 79.1974 61.641C78.6341 61.5798 78.0219 61.6655 77.5933 62.0206C77.1648 62.388 76.9689 62.9757 76.9689 63.5389C76.9689 64.947 78.3158 66 78.5606 67.3836C79.332 71.6202 76.5158 76.4689 72.2426 78.8198C68.9366 80.6442 59.8636 81.6728 51.7333 74.8527C51.3905 74.5588 51.3905 73.9956 51.0599 73.6895C50.8395 73.4936 50.5579 73.3711 50.2763 73.3221C49.0641 73.0895 47.8029 74.2405 47.9131 75.4649C48.0111 76.5791 48.9294 77.4362 49.7498 78.1954C51.8803 80.179 50.9252 80.9748 50.5579 82.0401C50.4722 82.3095 50.313 82.5544 50.2885 82.836C50.215 83.6196 51.415 83.3625 52.1986 83.3013C52.9823 83.24 53.6924 82.8115 54.4516 82.5911C55.4066 82.3217 59.7779 83.9257 60.635 84.1094C63.1206 84.6481 63.9777 84.893 66.1204 84.893C68.8019 84.893 71.0794 86.2766 73.0385 84.44C75.8302 81.8319 77.9974 80.13 80.4708 79.2851C81.6952 78.8688 83.1645 78.6607 84.193 79.4565C84.9277 80.0198 85.2583 80.9626 85.5154 81.8442C86.0419 83.6563 86.4337 85.5052 87.2051 87.2317C87.9765 88.9459 89.201 90.5499 90.9152 91.3213C91.4539 91.5662 92.0661 91.7254 92.6539 91.5907C93.2416 91.456 93.7559 90.954 93.7681 90.3662C93.7803 89.9622 93.5722 89.5948 93.3518 89.2642C92.5069 87.9174 91.5029 86.6684 90.756 85.2726C90.0091 83.8767 89.5193 82.2483 89.8254 80.6932C90.3887 77.8158 93.7191 77.0077 96.1068 76.2853C98.3965 75.5873 100.686 74.2772 103.147 74.4119C104.69 74.4976 107.959 76.2975 108.939 77.4975C109.135 77.7423 109.22 78.0484 109.269 78.3668C109.686 80.9504 107.788 83.2768 105.988 85.1624C105.67 85.493 105.339 85.995 105.608 86.3746C105.706 86.5093 105.853 86.5827 106 86.6317C107.298 87.1337 108.816 86.6929 109.918 85.8481C112.343 84.0114 113.188 80.8646 115.257 78.6852C116.959 76.9097 119.249 75.7465 121.563 74.9874C129.84 72.2691 130.268 78.7831 131.75 82.4319C133.232 86.0807 135.423 83.5584 135.448 82.5544C135.533 77.7913 132.485 71.5222 124.856 70.6161Z" fill="#F07371"/>
<path d="M47.3377 89.9499C46.0765 89.8765 45.2439 88.5663 45.7581 87.4031C46.5785 85.542 48.1213 83.6931 50.1171 82.2727C53.1537 80.1177 56.1903 79.7259 59.2391 80.5953L59.8636 83.7053C57.8923 83.1421 54.3659 83.7666 52.2476 85.2726C50.7171 86.3623 49.6641 87.697 49.1498 88.8112C48.8192 89.5336 48.1213 89.9989 47.3377 89.9499Z" fill="#F07371"/>
<path d="M126.632 33.5158C126.399 31.9608 125.187 30.516 123.62 30.467C122.848 30.4425 121.991 30.8466 121.783 31.5935C121.685 31.9241 121.734 32.2914 121.746 32.6343C121.844 35.1811 119.799 37.6422 117.277 37.9973C114.424 38.4013 112.318 36.6382 110.163 35.1688C108.106 33.773 105.535 32.8302 103.159 32.1567C96.8291 30.3813 91.3804 31.569 87.2296 36.7973C85.6868 38.7442 84.2175 40.8747 82.0502 42.0746C78.6463 43.9603 71.4589 44.0949 69.3406 40.3972C66.5612 35.5606 66.4632 20.696 75.3771 22.3858C78.132 22.9123 80.1768 25.2999 80.3728 27.0753C80.4952 28.2018 79.7973 29.1814 78.9034 29.9405C78.2178 30.5282 78.0708 31.52 78.5361 32.2792C79.1238 33.2465 80.4462 33.4546 81.3033 32.7322C83.8134 30.5772 84.2052 28.312 84.0216 26.6713C83.4461 21.4429 77.5566 18.4921 72.8792 18.3574C71.8507 18.3206 70.663 17.99 70.2712 17.0227C70.0998 16.6064 70.1243 16.1534 70.0875 15.7126C69.8426 12.5903 66.6469 9.19862 64.149 7.58237C63.2307 6.9824 61.994 7.37422 61.5165 8.35376C61.1124 9.19862 61.4308 10.1904 62.2144 10.7047C64.5898 12.2719 66.0346 14.5494 66.5122 17.488C67.0509 20.8675 66.3163 24.3204 64.8959 27.3937C64.1858 28.9365 63.3164 30.4303 62.3001 31.8016C61.4308 32.9893 60.1941 33.7852 59.6309 35.2056C59.5696 35.3647 59.5084 35.5362 59.5574 35.6953C59.6431 36.0014 60.0227 36.0872 60.341 36.0994C61.2471 36.1361 62.1532 35.9402 62.9613 35.5607C62.496 37.3606 63.696 39.1115 64.6878 40.6788C65.6796 42.2461 66.4754 44.3766 65.349 45.8581C65.3 45.9193 65.2388 45.9806 65.1898 46.054C62.7777 47.0703 60.4512 48.4539 58.6391 50.364C55.5168 53.67 53.2026 56.6454 48.6355 58.1147C44.5948 59.4248 40.1012 59.2657 36.1707 57.6861C35.4116 57.38 34.6402 57.0249 33.8198 57.0494C32.9995 57.0739 32.1301 57.6494 32.1056 58.4698C32.0934 58.8861 32.3015 59.2657 32.4852 59.6452C34.5667 63.8695 30.7465 66.6123 29.118 70.2856C27.5875 73.714 26.8038 77.473 26.8038 81.232C26.8038 85.3338 28.2119 88.3214 33.2933 93.5375C35.5953 95.8884 38.6074 97.2843 41.1419 98.1047C41.9378 98.3618 42.4398 97.272 41.7297 96.819C36.5013 93.4885 35.681 90.5377 34.0892 87.5011C30.269 80.1912 34.4443 69.0489 41.6317 63.392C44.4112 61.2125 48.3538 61.3839 51.7088 62.5349C55.3086 63.7716 57.4391 66.4163 60.1451 68.8775C60.8798 69.5509 61.8226 70.2733 62.7654 69.9794C63.6225 69.7223 64.0511 68.706 63.9531 67.8244C63.8552 66.9429 63.3531 66.1592 62.8756 65.4123C62.3491 64.5919 61.8226 63.7716 61.2839 62.9512C60.5859 61.8737 59.8635 60.7472 59.6431 59.4738C59.3982 58.0902 60.6227 53.3027 72.2548 50.3396C74.2261 49.8375 76.2342 50.0579 78.2178 50.6212C80.887 51.3803 82.7971 53.3394 85.0378 54.8699C85.6623 55.2985 86.348 55.7515 87.1071 55.776C88.0622 55.8128 88.9928 55.0903 89.1887 54.1475C89.458 52.8496 88.4785 51.6864 87.8295 50.5355C85.6745 46.7397 88.1846 41.6706 91.3559 39.2462C94.1966 37.0912 97.9311 36.2953 101.47 36.6626C106.857 37.2136 112.171 40.8135 113.408 46.0785C113.69 47.2662 114.032 48.7968 115.245 48.9559C116.591 49.1396 117.314 47.3397 117.179 45.9806C117.045 44.6214 116.604 43.0909 117.449 42.0134C117.84 41.5236 118.428 41.242 119.004 40.9849C120.657 40.2625 122.383 39.6625 123.865 38.6217C125.346 37.5932 126.583 36.0137 126.693 34.2138C126.681 34.0056 126.669 33.7607 126.632 33.5158Z" fill="#EA6363"/>
<path d="M60.3288 36.0871C61.2349 36.1239 62.1409 35.928 62.9491 35.5484C62.4838 37.3483 63.6837 39.0992 64.6755 40.6665C65.3979 41.8175 66.402 43.8623 65.3122 45.9561C65.3122 45.9561 66.953 45.0377 69.61 44.2664C72.267 43.495 74.8628 43.3235 74.8628 43.3235C72.9772 42.9317 70.1855 41.8665 69.3284 40.3849C66.5489 35.5484 66.4509 20.6838 75.3648 22.3735C78.1198 22.9 80.1646 25.2876 80.3605 27.0631C80.4829 28.1896 79.785 29.1691 78.8912 29.9282C78.2055 30.516 78.0586 31.5078 78.5238 32.2669C79.1116 33.2342 80.434 33.4424 81.2911 32.72C83.8012 30.565 84.193 28.2998 84.0093 26.659C83.4338 21.4307 77.5443 18.4798 72.867 18.3451C71.8384 18.3084 70.6507 17.9778 70.2589 17.0105C70.0875 16.5942 70.112 16.1411 70.0753 15.7003C69.8304 12.578 66.6346 9.18636 64.1368 7.57011C63.2184 6.97014 61.9818 7.36196 61.5042 8.3415C61.1002 9.18636 61.4185 10.1782 62.2022 10.6924C64.5776 12.2597 66.0224 14.5371 66.4999 17.4758C67.0387 20.8552 66.304 24.3081 64.8837 27.3814C64.1735 28.9242 63.3041 30.418 62.2879 31.7894C61.4185 32.9771 60.1818 33.773 59.6186 35.1933C59.5574 35.3525 59.4962 35.5239 59.5451 35.6831C59.6309 35.9892 60.0104 36.0749 60.3288 36.0871Z" fill="#F07371"/>
</svg>
